<svg width="49" height="49" viewBox="0 0 49 49" fill="none" xmlns="http://www.w3.org/2000/svg">
<path fill-rule="evenodd" clip-rule="evenodd" d="M24.5 49C38.031 49 49 38.031 49 24.5C49 10.969 38.031 0 24.5 0C10.969 0 0 10.969 0 24.5C0 38.031 10.969 49 24.5 49Z" fill="#5454D4"/>
<path d="M21.6364 23.448C21.5644 23.184 21.5164 22.872 21.5164 22.584C21.5164 21.12 22.3324 19.992 23.9884 19.992C25.5484 19.992 26.3404 21 26.3404 22.128C26.3404 23.208 25.8124 24.024 24.4924 24.816L21.9244 26.352C19.1404 28.032 18.2764 30.264 18.2524 33H29.7724V30.144H22.3084C22.5484 29.544 23.0524 29.112 23.6524 28.728L26.6524 26.904C28.5724 25.728 29.6764 24.096 29.6764 22.08C29.6764 19.368 27.5404 17.064 24.0604 17.064C20.4364 17.064 18.3724 19.536 18.3724 22.272C18.3724 22.656 18.4444 23.136 18.4924 23.352L21.6364 23.448Z" fill="white"/>
</svg>
