<svg width="122" height="19" viewBox="0 0 122 19" fill="none" xmlns="http://www.w3.org/2000/svg">
<path d="M10.9116 0.2436L13.908 6.00509L20.6063 6.92921C20.7797 6.95359 20.9235 7.06878 20.9775 7.22653C21.0315 7.38428 20.9864 7.55735 20.861 7.67325L16.0151 12.157L17.1592 18.4893C17.1893 18.6526 17.1186 18.8179 16.9769 18.9155C16.8353 19.0131 16.6473 19.026 16.4922 18.9488L10.5007 15.9597L4.50919 18.9497C4.3542 19.0271 4.16609 19.0144 4.02434 18.9169C3.88258 18.8193 3.8119 18.6539 3.84215 18.4906L4.9863 12.157L0.138953 7.67325C0.0135841 7.55735 -0.0315455 7.38428 0.0224676 7.22653C0.0764806 7.06878 0.220312 6.95359 0.393716 6.92921L7.09197 6.00509L10.0898 0.2436C10.1661 0.0946227 10.3257 0 10.5007 0C10.6757 0 10.8353 0.0946227 10.9116 0.2436Z" fill="#FEDC5A"/>
<path d="M35.9116 0.2436L38.908 6.00509L45.6063 6.92921C45.7797 6.95359 45.9235 7.06878 45.9775 7.22653C46.0315 7.38428 45.9864 7.55735 45.861 7.67325L41.0151 12.157L42.1592 18.4893C42.1893 18.6526 42.1186 18.8179 41.9769 18.9155C41.8353 19.0131 41.6473 19.026 41.4922 18.9488L35.5007 15.9597L29.5092 18.9497C29.3542 19.0271 29.1661 19.0144 29.0243 18.9169C28.8826 18.8193 28.8119 18.6539 28.8421 18.4906L29.9863 12.157L25.139 7.67325C25.0136 7.55735 24.9685 7.38428 25.0225 7.22653C25.0765 7.06878 25.2203 6.95359 25.3937 6.92921L32.092 6.00509L35.0898 0.2436C35.1661 0.0946227 35.3257 0 35.5007 0C35.6757 0 35.8353 0.0946227 35.9116 0.2436Z" fill="#FEDC5A"/>
<path d="M61.392 0.2436L64.2457 6.00509L70.625 6.92921C70.7902 6.95359 70.9272 7.06878 70.9786 7.22653C71.03 7.38428 70.9871 7.55735 70.8677 7.67325L66.2524 12.157L67.3421 18.4893C67.3708 18.6526 67.3034 18.8179 67.1685 18.9155C67.0336 19.0131 66.8545 19.026 66.7068 18.9488L61.0007 15.9597L55.2945 18.9497C55.1469 19.0271 54.9677 19.0144 54.8327 18.9169C54.6977 18.8193 54.6304 18.6539 54.6592 18.4906L55.7489 12.157L51.1323 7.67325C51.0129 7.55735 50.97 7.38428 51.0214 7.22653C51.0728 7.06878 51.2098 6.95359 51.375 6.92921L57.7543 6.00509L60.6093 0.2436C60.682 0.0946227 60.834 0 61.0007 0C61.1673 0 61.3193 0.0946227 61.392 0.2436Z" fill="#FEDC5A"/>
<path d="M86.9116 0.2436L89.908 6.00509L96.6063 6.92921C96.7797 6.95359 96.9235 7.06878 96.9775 7.22653C97.0315 7.38428 96.9864 7.55735 96.861 7.67325L92.0151 12.157L93.1592 18.4893C93.1893 18.6526 93.1186 18.8179 92.9769 18.9155C92.8353 19.0131 92.6473 19.026 92.4922 18.9488L86.5007 15.9597L80.5092 18.9497C80.3542 19.0271 80.1661 19.0144 80.0243 18.9169C79.8826 18.8193 79.8119 18.6539 79.8421 18.4906L80.9863 12.157L76.139 7.67325C76.0136 7.55735 75.9685 7.38428 76.0225 7.22653C76.0765 7.06878 76.2203 6.95359 76.3937 6.92921L83.092 6.00509L86.0898 0.2436C86.1661 0.0946227 86.3257 0 86.5007 0C86.6757 0 86.8353 0.0946227 86.9116 0.2436Z" fill="#FEDC5A"/>
<path d="M111.912 0.2436L114.908 6.00509L121.606 6.92921C121.78 6.95359 121.924 7.06878 121.978 7.22653C122.032 7.38428 121.986 7.55735 121.861 7.67325L117.015 12.157L118.159 18.4893C118.189 18.6526 118.119 18.8179 117.977 18.9155C117.835 19.0131 117.647 19.026 117.492 18.9488L111.501 15.9597L105.509 18.9497C105.354 19.0271 105.166 19.0144 105.024 18.9169C104.883 18.8193 104.812 18.6539 104.842 18.4906L105.986 12.157L101.139 7.67325C101.014 7.55735 100.968 7.38428 101.022 7.22653C101.076 7.06878 101.22 6.95359 101.394 6.92921L108.092 6.00509L111.09 0.2436C111.166 0.0946227 111.326 0 111.501 0C111.676 0 111.835 0.0946227 111.912 0.2436Z" fill="#FEDC5A"/>
</svg>
